<svg xmlns="http://www.w3.org/2000/svg" version="1.1" xmlns:xlink="http://www.w3.org/1999/xlink" xmlns:svgjs="http://svgjs.dev/svgjs" width="2000" height="838" viewBox="0 0 2000 838"><g transform="matrix(1,0,0,1,-1.2120934922493234,-0.7084911493274717)"><svg viewBox="0 0 396 166" data-background-color="#ffffff" preserveAspectRatio="xMidYMid meet" height="838" width="2000" xmlns="http://www.w3.org/2000/svg" xmlns:xlink="http://www.w3.org/1999/xlink"><g id="tight-bounds" transform="matrix(1,0,0,1,0.23999453834505857,0.1403455021340818)"><svg viewBox="0 0 395.52 165.71930856565544" height="165.71930856565544" width="395.52"><g><svg viewBox="0 0 395.52 165.71930856565544" height="165.71930856565544" width="395.52"><g transform="matrix(1,0,0,1,0,99.67800147173588)"><svg viewBox="0 0 395.52 66.04130709391956" height="66.04130709391956" width="395.52"><g><svg viewBox="0 0 395.52 66.04130709391956" height="66.04130709391956" width="395.52"><g><svg viewBox="0 0 395.52 35.61952535598301" height="35.61952535598301" width="395.52"><g transform="matrix(1,0,0,1,0,0)"><svg width="395.52" viewBox="4.349999904632568 -35.650001525878906 400.2699890136719 36.05000305175781" height="35.61952535598301" data-palette-color="#6936f5"><path d="M26.65 0L4.35 0 4.35-35.25 26.65-35.25 26.65-31.85 8.4-31.85 8.4-19.6 25.65-19.6 25.65-16.2 8.4-16.2 8.4-3.4 26.65-3.4 26.65 0ZM44.15 0.4Q35.9 0.4 30.95-4.05L30.95-4.05 32.55-7.2Q35.15-5 37.87-4.05 40.6-3.1 44.2-3.1L44.2-3.1Q48.45-3.1 50.75-4.75 53.05-6.4 53.05-9.4L53.05-9.4Q53.05-11.15 51.95-12.25 50.85-13.35 49.05-14 47.25-14.65 44.2-15.35L44.2-15.35Q40.1-16.3 37.47-17.35 34.85-18.4 33.22-20.35 31.6-22.3 31.6-25.45L31.6-25.45Q31.6-28.45 33.17-30.78 34.75-33.1 37.67-34.38 40.6-35.65 44.45-35.65L44.45-35.65Q48.1-35.65 51.27-34.5 54.45-33.35 56.65-31.2L56.65-31.2 55.1-28.05Q52.6-30.2 50.02-31.18 47.45-32.15 44.45-32.15L44.45-32.15Q40.35-32.15 38.02-30.43 35.7-28.7 35.7-25.6L35.7-25.6Q35.7-22.95 37.75-21.6 39.8-20.25 43.95-19.3L43.95-19.3Q48.5-18.2 51.1-17.28 53.7-16.35 55.42-14.5 57.15-12.65 57.15-9.55L57.15-9.55Q57.15-6.55 55.57-4.3 54-2.05 51.05-0.83 48.1 0.4 44.15 0.4L44.15 0.4ZM75.7 0L71.55 0 71.55-31.75 59.3-31.75 59.3-35.25 88-35.25 88-31.75 75.7-31.75 75.7 0ZM105.49 0.4Q100.59 0.4 96.97-1.8 93.34-4 91.39-8.05 89.44-12.1 89.44-17.6L89.44-17.6Q89.44-23.15 91.37-27.23 93.29-31.3 96.92-33.48 100.54-35.65 105.49-35.65L105.49-35.65Q110.44-35.65 114.07-33.48 117.69-31.3 119.62-27.23 121.54-23.15 121.54-17.65L121.54-17.65Q121.54-12.15 119.59-8.08 117.64-4 114.02-1.8 110.39 0.4 105.49 0.4L105.49 0.4ZM105.49-3.1Q111.09-3.1 114.22-6.88 117.34-10.65 117.34-17.65L117.34-17.65Q117.34-24.65 114.24-28.4 111.14-32.15 105.49-32.15L105.49-32.15Q99.89-32.15 96.77-28.38 93.64-24.6 93.64-17.65L93.64-17.65Q93.64-10.7 96.77-6.9 99.89-3.1 105.49-3.1L105.49-3.1ZM143.99 0.4Q138.99 0.4 135.29-1.78 131.59-3.95 129.62-8.03 127.64-12.1 127.64-17.65L127.64-17.65Q127.64-23.2 129.62-27.25 131.59-31.3 135.29-33.48 138.99-35.65 143.99-35.65L143.99-35.65Q147.64-35.65 150.69-34.52 153.74-33.4 155.99-31.2L155.99-31.2 154.44-28.05Q151.89-30.2 149.44-31.15 146.99-32.1 144.04-32.1L144.04-32.1Q138.24-32.1 135.07-28.33 131.89-24.55 131.89-17.65L131.89-17.65Q131.89-10.7 135.07-6.93 138.24-3.15 144.04-3.15L144.04-3.15Q146.99-3.15 149.44-4.1 151.89-5.05 154.44-7.2L154.44-7.2 155.99-4.05Q153.74-1.85 150.69-0.73 147.64 0.4 143.99 0.4L143.99 0.4ZM170.99-18.1L190.34 0 185.04 0 166.89-16.75 166.89 0 162.79 0 162.79-35.25 166.89-35.25 166.89-19.05 184.19-35.25 189.39-35.25 170.99-18.1ZM223.83-9.7L237.03-35.25 240.38-35.25 240.38 0 236.63 0 236.68-27.3 225.23-5.6 222.33-5.6 210.83-27.1 210.88 0 207.08 0 207.08-35.25 210.48-35.25 223.83-9.7ZM280.23 0L276.08 0 272.18-9.05 253.78-9.05 249.88 0 245.68 0 261.18-35.25 264.73-35.25 280.23 0ZM262.98-30.5L255.23-12.45 270.73-12.45 262.98-30.5ZM307.08-11.5L313.23 0 308.73 0 302.73-11.3Q301.63-13.35 300.15-14.13 298.68-14.9 296.13-14.9L296.13-14.9 289.53-14.9 289.53 0 285.48 0 285.48-35.25 299.98-35.25Q305.73-35.25 308.75-32.7 311.78-30.15 311.78-25.2L311.78-25.2Q311.78-21.1 309.45-18.57 307.13-16.05 302.83-15.4L302.83-15.4Q304.18-15 305.2-14.05 306.23-13.1 307.08-11.5L307.08-11.5ZM289.53-18.3L299.63-18.3Q303.73-18.3 305.75-20 307.78-21.7 307.78-25.15L307.78-25.15Q307.78-28.55 305.78-30.2 303.78-31.85 299.63-31.85L299.63-31.85 289.53-31.85 289.53-18.3ZM327.98-18.1L347.33 0 342.03 0 323.88-16.75 323.88 0 319.78 0 319.78-35.25 323.88-35.25 323.88-19.05 341.18-35.25 346.38-35.25 327.98-18.1ZM373.47 0L351.17 0 351.17-35.25 373.47-35.25 373.47-31.85 355.22-31.85 355.22-19.6 372.47-19.6 372.47-16.2 355.22-16.2 355.22-3.4 373.47-3.4 373.47 0ZM392.32 0L388.17 0 388.17-31.75 375.92-31.75 375.92-35.25 404.62-35.25 404.62-31.75 392.32-31.75 392.32 0Z" opacity="1" transform="matrix(1,0,0,1,0,0)" fill="#6936f5" class="undefined-text-0" data-fill-palette-color="primary" id="text-0"></path></svg></g></svg></g><g transform="matrix(1,0,0,1,0,44.02844042392205)"><svg viewBox="0 0 395.52 22.0128666699975" height="22.0128666699975" width="395.52"><g transform="matrix(1,0,0,1,0,0)"><svg width="395.52" viewBox="2.950000047683716 -38 701.6400146484375 39.04999923706055" height="22.0128666699975" data-palette-color="#6936f5"><path d="M22.75-34.45L22.75-34.45 23.9-34.85Q24.55-34.85 24.65-34.45L24.65-34.45Q25.7-28.4 25.7-27.33 25.7-26.25 25-26.25L25-26.25Q24.55-26.25 24.13-27.33 23.7-28.4 23.13-29.3 22.55-30.2 22.3-30.45 22.05-30.7 21-31.65L21-31.65Q18.3-34.05 14.83-34.05 11.35-34.05 9.25-32.55 7.15-31.05 7.15-28.65 7.15-26.25 8.38-24.8 9.6-23.35 11.65-22.55 13.7-21.75 15.95-21.05L15.95-21.05Q22-19.15 24.9-16.1L24.9-16.1Q26.9-13.95 26.9-10.75L26.9-10.75Q26.9-5.5 23.55-2.43 20.2 0.65 15.25 0.65L15.25 0.65Q11.8 0.65 9.7 0.28 7.6-0.1 5.4-1.25L5.4-1.25Q4.75-1.65 3.85-5.15 2.95-8.65 2.95-9.53 2.95-10.4 3.63-10.4 4.3-10.4 4.45-9.9L4.45-9.9Q6.3-5.45 8.8-3.6L8.8-3.6Q11.5-1.55 15.33-1.55 19.15-1.55 21.43-3.53 23.7-5.5 23.7-8.7L23.7-8.7Q23.7-11.05 22.15-12.63 20.6-14.2 18.6-14.9L18.6-14.9Q11.15-17.4 8.5-18.95L8.5-18.95Q3.95-21.65 3.95-26.2 3.95-30.75 7.18-33.43 10.4-36.1 15.55-36.1L15.55-36.1Q17.45-36.1 20.08-35.27 22.7-34.45 22.75-34.45ZM145.55-18.55L145.55-18.55 144.6-18.5Q143.75-18.5 143.75-19.2L143.75-19.2Q143.75-19.7 144.2-20.05L144.2-20.05Q146.1-21.3 148-23.8L148-23.8Q148.8-24.95 149.27-25.48 149.75-26 150.25-26 150.75-26 150.75-24.85L150.75-24.85Q150.75-24.85 150.55-22L150.55-22Q150.55-21.3 150.82-21.15 151.1-21 152.6-21L152.6-21 154.35-21Q156.6-21 157.1-21.25L157.1-21.25Q158-21.7 158.2-21.7L158.2-21.7Q158.7-21.7 158.7-21.15L158.7-21.15Q158.7-20.75 158.05-19.58 157.4-18.4 157.1-18.4L157.1-18.4Q154.85-18.4 153.95-18.5 153.05-18.6 152.75-18.63 152.45-18.65 152.22-18.68 152-18.7 151.9-18.7L151.9-18.7 151.8-18.75Q150.85-18.75 150.57-18.45 150.3-18.15 150.3-17.1L150.3-17.1 150.1-7.8Q150.1-4.55 150.92-3.28 151.75-2 154.4-2L154.4-2Q155.45-2 156.72-2.48 158-2.95 158.1-2.95L158.1-2.95Q158.6-2.95 158.6-2.3 158.6-1.65 156.87-0.58 155.15 0.5 153.15 0.5L153.15 0.5Q146.4 0.5 146.4-5.35L146.4-5.35 146.4-6.1 146.6-17.75Q146.6-18.25 146.4-18.4 146.2-18.55 145.55-18.55ZM285.22 0.9Q280.1 0.9 277.07-2.38 274.05-5.65 274.05-10.2 274.05-14.75 277.17-18.15 280.3-21.55 285.42-21.55 290.55-21.55 294.02-18.6 297.5-15.65 297.5-10.4 297.5-5.15 293.92-2.13 290.35 0.9 285.22 0.9ZM284.65-20.2Q282.05-20.2 280.02-18.15 278-16.1 278-11.4 278-6.7 280.75-3.65 283.5-0.6 286.67-0.6 289.85-0.6 291.8-2.78 293.75-4.95 293.75-9.15 293.75-13.35 291.35-16.78 288.95-20.2 284.65-20.2L284.65-20.2ZM424.34 1.05Q419.64 1.05 416.82-1.8 413.99-4.65 413.99-9.53 413.99-14.4 417.22-17.93 420.44-21.45 425.59-21.45L425.59-21.45Q427.34-21.45 429.37-20.95 431.39-20.45 431.44-19.8L431.44-19.8Q431.54-18.6 431.54-16.93 431.54-15.25 430.99-15.25L430.99-15.25Q430.49-15.25 430.09-15.9L430.09-15.9Q429.24-17.35 426.87-18.43 424.49-19.5 422.69-19.5L422.69-19.5Q421.69-19.5 420.74-18.75 419.79-18 419.19-17.1L419.19-17.1Q417.74-15 417.74-11.15 417.74-7.3 420.22-4.42 422.69-1.55 426.29-1.55L426.29-1.55Q428.04-1.55 429.54-2.2 431.04-2.85 431.87-3.5 432.69-4.15 432.89-4.15L432.89-4.15Q433.44-4.15 433.44-3.65L433.44-3.65Q433.44-3.15 432.39-2.13 431.34-1.1 430.34-0.5L430.34-0.5Q427.89 1.05 424.34 1.05L424.34 1.05ZM548.99-33.95L548.99-33.95 547.99-33.9Q546.99-33.9 546.99-34.45 546.99-35 549.44-35.75L549.44-35.75Q549.79-35.85 550.27-36 550.74-36.15 550.84-36.18 550.94-36.2 551.22-36.3 551.49-36.4 551.52-36.43 551.54-36.45 551.77-36.55 551.99-36.65 552.09-36.73 552.19-36.8 552.49-36.98 552.79-37.15 553.47-37.58 554.14-38 554.79-38 555.44-38 555.44-37.05L555.44-37.05Q555.44-36.95 555.39-36.48 555.34-36 555.27-35.08 555.19-34.15 555.14-32.8L555.14-32.8Q554.99-28.85 554.99-24.4L554.99-24.4Q554.99-24.4 554.84-14.15L554.84-14.15 554.84-13.1Q554.84-11 555.04-11L555.04-11Q555.49-11 555.97-11.5 556.44-12 556.64-12.15L556.64-12.15Q563.64-17.75 563.64-18.45 563.64-19.15 562.52-19.6 561.39-20.05 561.39-20.45L561.39-20.45Q561.39-20.95 561.99-20.95L561.99-20.95 562.89-20.9 570.24-21.15Q571.54-21.15 571.54-20.75 571.54-20.35 571.24-20.2 570.94-20.05 570.44-20L570.44-20Q568.79-19.75 566.74-18.35L566.74-18.35Q566.59-18.25 566.42-18.1 566.24-17.95 565.77-17.6 565.29-17.25 564.64-16.75 563.99-16.25 562.24-14.93 560.49-13.6 560.09-13.25 559.69-12.9 559.69-12.5 559.69-12.1 560.24-11.35L560.24-11.35Q564.79-5.8 568.04-2.95L568.04-2.95Q569.39-1.75 570.77-1.4 572.14-1.05 572.74-1.05 573.34-1.05 573.34-0.6L573.34-0.6Q573.34 0 572.92 0.13 572.49 0.25 571.29 0.25L571.29 0.25 566.09 0.2Q564.84 0.2 558.24-7.95L558.24-7.95Q556.94-9.55 556.82-9.75 556.69-9.95 556.27-9.95 555.84-9.95 555.32-9.25 554.79-8.55 554.79-7.65L554.79-7.65 554.84-6.8Q554.84-3.2 555.24-2.7L555.24-2.7Q555.29-2.65 555.72-2.08 556.14-1.5 557.82-1.2 559.49-0.9 559.49-0.45L559.49-0.45Q559.49 0.35 557.94 0.35L557.94 0.35 553.09 0.05 549.44 0.25Q548.24 0.25 548.24-0.35L548.24-0.35Q548.24-0.85 549.49-1.2L549.49-1.2Q550.64-1.65 550.94-2.5 551.24-3.35 551.24-5.8L551.24-5.8 551.29-8 551.34-30.2Q551.34-33.95 548.99-33.95ZM703.24-20.05L703.24-20.05 703.44-17.05Q703.44-16.2 703.24-15.9 703.04-15.6 702.66-15.6 702.29-15.6 701.86-16.32 701.44-17.05 700.91-17.9 700.39-18.75 699.21-19.48 698.04-20.2 696.54-20.2 695.04-20.2 694.09-19.48 693.14-18.75 693.14-17.9 693.14-17.05 693.29-16.53 693.44-16 693.81-15.6 694.19-15.2 694.46-14.93 694.74-14.65 695.39-14.35 696.04-14.05 696.36-13.93 696.69-13.8 697.44-13.5L697.44-13.5Q701.99-11.9 703.29-10.38 704.59-8.85 704.59-6 704.59-3.15 701.94-0.75L701.94-0.75Q700.14 0.8 696.99 0.8L696.99 0.8Q694.84 0.8 692.19-0.25L692.19-0.25Q691.44-0.55 691.31-0.58 691.19-0.6 690.91-0.7 690.64-0.8 690.51-0.83 690.39-0.85 690.19-0.95 689.99-1.05 689.91-1.13 689.84-1.2 689.74-1.35L689.74-1.35Q689.59-1.6 689.59-2.15L689.59-2.15 689.59-6.5Q689.59-7.05 689.81-7.43 690.04-7.8 690.44-7.8 690.84-7.8 691.01-7.58 691.19-7.35 691.34-6.65 691.49-5.95 691.64-5.65L691.64-5.65Q693.49-1.05 696.84-1.05L696.84-1.05Q698.39-1.05 699.79-1.88 701.19-2.7 701.19-4.48 701.19-6.25 700.04-7.35 698.89-8.45 697.24-9.08 695.59-9.7 693.94-10.38 692.29-11.05 691.14-12.38 689.99-13.7 689.99-15.7L689.99-15.7Q689.99-18.5 692.24-20.2 694.49-21.9 697.19-21.9 699.89-21.9 701.29-21.48 702.69-21.05 702.96-20.7 703.24-20.35 703.24-20.05Z" opacity="1" transform="matrix(1,0,0,1,0,0)" fill="#6936f5" class="undefined-text-1" data-fill-palette-color="secondary" id="text-1"></path></svg></g></svg></g></svg></g></svg></g><g transform="matrix(1,0,0,1,144.4453732132381,0)"><svg viewBox="0 0 106.62925357352377 91.26908640379683" height="91.26908640379683" width="106.62925357352377"><g><svg xmlns="http://www.w3.org/2000/svg" xmlns:xlink="http://www.w3.org/1999/xlink" version="1.1" x="8" y="0" viewBox="0.11144089698791504 0 31.775667190551758 32" style="enable-background:new 0 0 32 32;" xml:space="preserve" height="91.26908640379683" width="90.62925357352377" class="icon-icon-0" data-fill-palette-color="accent" id="icon-0"><g fill="#6936f5" data-fill-palette-color="accent"><path d="M27.495 32H4.505C3.124 32 2 30.876 2 29.495V12c0-0.552 0.448-1 1-1s1 0.448 1 1v17.495C4 29.773 4.227 30 4.505 30h22.99C27.773 30 28 29.773 28 29.495V12c0-0.552 0.447-1 1-1s1 0.448 1 1v17.495C30 30.876 28.876 32 27.495 32z" fill="#6936f5" data-fill-palette-color="accent"></path><g fill="#6936f5" data-fill-palette-color="accent"><path d="M28.656 13c-0.894 0-1.733-0.348-2.364-0.98-1.023-1.021-2.686-1.022-3.709 0-1.262 1.263-3.467 1.263-4.729 0-1.023-1.021-2.687-1.022-3.709 0-1.261 1.261-3.466 1.264-4.729 0-1.022-1.022-2.687-1.022-3.709 0-1.136 1.137-3.042 1.284-4.339 0.334C0.26 11.542-0.177 10 0.307 8.603l2.4-6.925C3.054 0.675 4.002 0 5.064 0h21.871c1.062 0 2.01 0.674 2.357 1.678l2.4 6.925c0.483 1.397 0.047 2.939-1.062 3.752C30.055 12.777 29.372 13 28.656 13zM24.438 9.255c1.184 0 2.367 0.451 3.269 1.352 0.457 0.458 1.223 0.517 1.743 0.135 0.401-0.294 0.55-0.918 0.354-1.483-0.001 0-0.001 0-0.001 0l-2.399-6.924C27.335 2.134 27.146 2 26.936 2H5.064C4.854 2 4.666 2.134 4.596 2.333l-2.4 6.925C2 9.823 2.149 10.447 2.55 10.741c0.52 0.38 1.286 0.321 1.743-0.134 1.802-1.803 4.735-1.804 6.538 0 0.508 0.508 1.393 0.506 1.9 0 1.803-1.803 4.735-1.803 6.538 0 0.508 0.508 1.393 0.507 1.9 0C22.07 9.706 23.254 9.255 24.438 9.255z" fill="#6936f5" data-fill-palette-color="accent"></path></g><path d="M20 32h-8c-0.552 0-1-0.447-1-1V19.505C11 18.124 12.124 17 13.505 17h4.99C19.876 17 21 18.124 21 19.505V31C21 31.553 20.553 32 20 32zM13 30h6V19.505C19 19.227 18.773 19 18.495 19h-4.99C13.227 19 13 19.227 13 19.505V30z" fill="#6936f5" data-fill-palette-color="accent"></path><path d="M8 8C7.896 8 7.789 7.984 7.684 7.949 7.16 7.774 6.876 7.208 7.051 6.684l1-3c0.174-0.523 0.74-0.809 1.265-0.632 0.524 0.175 0.807 0.741 0.632 1.265l-1 3C8.809 7.735 8.419 8 8 8z" fill="#6936f5" data-fill-palette-color="accent"></path><path d="M16 8c-0.552 0-1-0.448-1-1V4c0-0.552 0.448-1 1-1s1 0.448 1 1v3C17 7.552 16.552 8 16 8z" fill="#6936f5" data-fill-palette-color="accent"></path><path d="M24 8c-0.419 0-0.809-0.265-0.948-0.684l-1-3c-0.175-0.524 0.108-1.09 0.632-1.265 0.529-0.177 1.09 0.109 1.265 0.632l1 3c0.175 0.524-0.108 1.09-0.632 1.265C24.211 7.984 24.104 8 24 8z" fill="#6936f5" data-fill-palette-color="accent"></path></g></svg></g></svg></g><g><rect width="144.4453732132381" height="3.2122055559527154" y="87.05688084784411" x="251.07462678676188" fill="#6936f5" data-fill-palette-color="accent"></rect><rect width="144.4453732132381" height="3.2122055559527154" y="87.05688084784411" x="0" fill="#6936f5" data-fill-palette-color="accent"></rect><rect width="144.4453732132381" height="3.2122055559527154" y="80.63246973593868" x="251.07462678676188" fill="#6936f5" data-fill-palette-color="accent"></rect><rect width="144.4453732132381" height="3.2122055559527154" y="80.63246973593868" x="0" fill="#6936f5" data-fill-palette-color="accent"></rect></g></svg></g><defs></defs></svg><rect width="395.52" height="165.71930856565544" fill="none" stroke="none" visibility="hidden"></rect></g></svg></g></svg>